<svg xmlns="http://www.w3.org/2000/svg" viewBox="0 0 190.05 65.08"><defs><style>.cls-1,.cls-2{fill:#efefef;}.cls-2{font-size:36px;font-family:LucidaSans-TypewriterBold, Lucida Sans Typewriter;font-weight:700;font-style:italic;}</style></defs><g id="Capa_2" data-name="Capa 2"><g id="Capa_1-2" data-name="Capa 1"><path class="cls-1" d="M55.7,21.57a15.93,15.93,0,0,0-1.16-4.09,19.67,19.67,0,0,0-2-3.67,1.84,1.84,0,0,1-.33-.55,2.62,2.62,0,0,1,0-1.76s.06-1,.15-2.83a12.28,12.28,0,0,0-1-6.31,4.17,4.17,0,0,0-1.67-2,4.45,4.45,0,0,0-3-.19A17.34,17.34,0,0,0,41,1.76C38.15,3.15,38.27,4,36.8,4.05c-1.21,0-1.6-.53-4.4-.86-.39,0-.85-.07-1.76-.12l-.53,0a7.17,7.17,0,0,0-.79,0,7,7,0,0,0-.79,0l-.54,0c-.91.05-1.36.08-1.75.12-2.8.33-3.19.9-4.4.86-1.47,0-1.36-.9-4.18-2.29A17.29,17.29,0,0,0,11.93.14,4.45,4.45,0,0,0,9,.33a4.12,4.12,0,0,0-1.67,2A12.42,12.42,0,0,0,6.23,8.67c.1,1.86.15,2.79.16,2.83a2.75,2.75,0,0,1,0,1.76,1.84,1.84,0,0,1-.33.55,19.11,19.11,0,0,0-2,3.67,15.93,15.93,0,0,0-1.16,4.09,24.51,24.51,0,0,0,1.25,12,20,20,0,0,0,5.08,7.63,20.61,20.61,0,0,0,7.82,4.37,10.2,10.2,0,0,0,1.67.35.47.47,0,0,1,.38.07c.21.23-.18.91-.27,1.08-.47.88-.41,2-.5,4.24,0,.18,0,.88-.07,1.85a8.84,8.84,0,0,1-1,.15A6.57,6.57,0,0,1,14.05,53a6.36,6.36,0,0,1-1.9-1.38,30.39,30.39,0,0,1-2.62-2.94l-.92-1.07a12.52,12.52,0,0,0-3.42-3,4.19,4.19,0,0,0-2.88-.77A3,3,0,0,0,.47,45,2.94,2.94,0,0,0,0,46.48a3.24,3.24,0,0,0,.38,1.65,2.51,2.51,0,0,0,1.49,1.29l.24,0a3.83,3.83,0,0,1,.41,0c.16.05.24.19.35.35s.15.12.63.64c.06.06.3.32.68.79s.53.69.84,1.09.62.77,1.07,1.28,1,1.13,1.49,1.61A13.08,13.08,0,0,0,10,57.05a12.81,12.81,0,0,0,3.21,1.3,17.27,17.27,0,0,0,3,.52c.81.07,1.45.13,2,.14a26.17,26.17,0,0,0,.13,3.37,3.9,3.9,0,0,0,.11.45,4.3,4.3,0,0,0,.66,1.34A2.87,2.87,0,0,0,21.8,65a2.77,2.77,0,0,0,2.11-1.81,4.4,4.4,0,0,0,0-.93c0-1.91,0-.29,0-2,0-2.76,0-4.14,0-5,0-2.07-.09-2.76,0-4.46.09-2.24.25-2.75.6-3.21a18.92,18.92,0,0,0,1.6-1.93,2.71,2.71,0,0,0,.44-1.08,2.58,2.58,0,0,0,0-1,2.94,2.94,0,0,0-.93-1.81,2.4,2.4,0,0,0-1.17-.42c-1.23-.22-2.45-.47-3.68-.69A23.39,23.39,0,0,1,18.19,40a13.61,13.61,0,0,1-4.64-2.33,12.17,12.17,0,0,1-2.94-3.49A16.33,16.33,0,0,1,8.68,27a15,15,0,0,1,.41-6.61,9.48,9.48,0,0,1,.9-2.09c.77-1.26,1.4-1.52,2.16-3a4,4,0,0,0,.59-1.71c0-.78-.23-1-.55-2.13a19.5,19.5,0,0,1-.32-4.36A4.77,4.77,0,0,1,12,6.28c0-.23.07-.33.16-.38s.38,0,.63.15a7.91,7.91,0,0,0,1.12.31,11.59,11.59,0,0,1,2,.9,19.83,19.83,0,0,1,2,1.08c.39.26.94.69,1.8,1.2a2.94,2.94,0,0,0,.71.33,2.85,2.85,0,0,0,1.36.07c1.29-.21,2-.54,3.16-.79a14.68,14.68,0,0,1,2.51-.33c1.05-.05,1.56,0,1.92,0s.87,0,1.92,0a14.61,14.61,0,0,1,2.5.33c1.13.25,1.88.58,3.17.79A2.77,2.77,0,0,0,39,9.54c.86-.51,1.42-.94,1.81-1.2a20.48,20.48,0,0,1,2-1.08,12.45,12.45,0,0,1,2-.9,7.21,7.21,0,0,0,1.12-.31c.26-.11.48-.25.64-.15s.11.15.16.38a4.77,4.77,0,0,1,.12.82,19.5,19.5,0,0,1-.32,4.36c-.33,1.15-.6,1.35-.55,2.13a4,4,0,0,0,.59,1.71c.76,1.45,1.39,1.71,2.15,3a9.55,9.55,0,0,1,.91,2.09A15.19,15.19,0,0,1,50,27,16.33,16.33,0,0,1,48,34.21a12.08,12.08,0,0,1-3,3.49A13.49,13.49,0,0,1,40.45,40a24,24,0,0,1-2.62.64c-1.23.22-2.45.47-3.68.69a2.4,2.4,0,0,0-1.18.42,3,3,0,0,0-.92,1.81,2.59,2.59,0,0,0,.39,2.07,18.7,18.7,0,0,0,1.61,1.93c.34.46.51,1,.59,3.21.06,1.7,0,2.39,0,4.46,0,.85,0,2.23,0,5,0,1.74,0,.12,0,2a4.4,4.4,0,0,0,0,.93A2.74,2.74,0,0,0,36.84,65a2.88,2.88,0,0,0,2.73-.85,4.3,4.3,0,0,0,.66-1.34s.06-.22.11-.45c.31-1.65,0-10.36-.07-11.05-.09-2.27,0-3.36-.51-4.24-.09-.17-.47-.85-.26-1.08a.46.46,0,0,1,.37-.07,9.91,9.91,0,0,0,1.67-.35,20.69,20.69,0,0,0,7.83-4.37,20,20,0,0,0,5.08-7.63A24.51,24.51,0,0,0,55.7,21.57Z"/><text class="cls-2" transform="translate(59.9 49.74)">Search</text></g></g></svg>